<?xml version="1.0" standalone="no"?>
<!DOCTYPE svg PUBLIC "-//W3C//DTD SVG 1.1//EN" "http://www.w3.org/Graphics/SVG/1.1/DTD/svg11.dtd" >
<svg xmlns="http://www.w3.org/2000/svg">
<metadata>
<json>
<![CDATA[
{
	"fontFamily": "icomoon",
	"majorVersion": 1,
	"minorVersion": 0,
	"version": "Version 1.0",
	"fontId": "icomoon",
	"psName": "icomoon",
	"subFamily": "Regular",
	"fullName": "icomoon",
	"description": "Font generated by IcoMoon."
}
]]>
</json>
</metadata>
<defs>
<font id="icomoon" horiz-adv-x="1024">
<font-face units-per-em="1024" ascent="960" descent="-64" />
<missing-glyph horiz-adv-x="1024" />
<glyph unicode="&#x20;" horiz-adv-x="512" d="" />
<glyph unicode="&#xe900;" d="M847.997 649.603h-639.989v83.194c0 15.997 12.8 31.994 31.994 31.994h579.197c15.997 0 31.994-12.8 31.994-31.994z" />
<glyph unicode="&#xe901;" d="M710.406 143.997v108.794c0 12.8 9.603 25.6 25.6 25.6h89.6l-115.2-134.394z" />
<glyph unicode="&#xe926;" glyph-name="new-list" data-tags="file-text, file, document, list, paper, page" d="M917.806 730.924c-22.212 30.292-53.174 65.7-87.178 99.704s-69.412 64.964-99.704 87.178c-51.574 37.82-76.592 42.194-90.924 42.194h-496c-44.112 0-80-35.888-80-80v-864c0-44.112 35.888-80 80-80h736c44.112 0 80 35.888 80 80v624c0 14.332-4.372 39.35-42.194 90.924zM785.374 785.374c30.7-30.7 54.8-58.398 72.58-81.374h-153.954v153.946c22.984-17.78 50.678-41.878 81.374-72.572zM896 16c0-8.672-7.328-16-16-16h-736c-8.672 0-16 7.328-16 16v864c0 8.672 7.328 16 16 16 0 0 495.956 0.002 496 0v-224c0-17.672 14.326-32 32-32h224v-624zM736 128h-448c-17.672 0-32 14.326-32 32s14.328 32 32 32h448c17.674 0 32-14.326 32-32s-14.326-32-32-32zM736 256h-448c-17.672 0-32 14.326-32 32s14.328 32 32 32h448c17.674 0 32-14.326 32-32s-14.326-32-32-32zM736 384h-448c-17.672 0-32 14.326-32 32s14.328 32 32 32h448c17.674 0 32-14.326 32-32s-14.326-32-32-32z" />
<glyph unicode="&#xe94e;" glyph-name="pending" data-tags="clock, time, schedule" d="M658.744 210.744l-210.744 210.746v282.51h128v-229.49l173.256-173.254zM512 960c-282.77 0-512-229.23-512-512s229.23-512 512-512 512 229.23 512 512-229.23 512-512 512zM512 64c-212.078 0-384 171.922-384 384s171.922 384 384 384c212.078 0 384-171.922 384-384s-171.922-384-384-384z" />
<glyph unicode="&#xe962;" glyph-name="save-submit" data-tags="floppy-disk, save" d="M896 960h-896v-1024h1024v896l-128 128zM512 832h128v-256h-128v256zM896 64h-768v768h64v-320h576v320h74.978l53.022-53.018v-714.982z" />
<glyph unicode="&#xe986;" glyph-name="search" data-tags="search, magnifier, magnifying-glass, inspect, find" d="M992.262 88.604l-242.552 206.294c-25.074 22.566-51.89 32.926-73.552 31.926 57.256 67.068 91.842 154.078 91.842 249.176 0 212.078-171.922 384-384 384-212.076 0-384-171.922-384-384s171.922-384 384-384c95.098 0 182.108 34.586 249.176 91.844-1-21.662 9.36-48.478 31.926-73.552l206.294-242.552c35.322-39.246 93.022-42.554 128.22-7.356s31.892 92.898-7.354 128.22zM384 320c-141.384 0-256 114.616-256 256s114.616 256 256 256 256-114.616 256-256-114.614-256-256-256z" />
<glyph unicode="&#xe9ac;" glyph-name="bin" data-tags="bin, trashcan, remove, delete, recycle, dispose" d="M128 640v-640c0-35.2 28.8-64 64-64h576c35.2 0 64 28.8 64 64v640h-704zM320 64h-64v448h64v-448zM448 64h-64v448h64v-448zM576 64h-64v448h64v-448zM704 64h-64v448h64v-448zM848 832h-208v80c0 26.4-21.6 48-48 48h-224c-26.4 0-48-21.6-48-48v-80h-208c-26.4 0-48-21.6-48-48v-80h832v80c0 26.4-21.6 48-48 48zM576 832h-192v63.198h192v-63.198z" />
<glyph unicode="&#xea3c;" glyph-name="arrow-right2" data-tags="arrow-right, right, next" d="M621.254 82.746l320 320c24.994 24.992 24.994 65.516 0 90.51l-320 320c-24.994 24.992-65.516 24.992-90.51 0-24.994-24.994-24.994-65.516 0-90.51l210.746-210.746h-613.49c-35.346 0-64-28.654-64-64s28.654-64 64-64h613.49l-210.746-210.746c-12.496-12.496-18.744-28.876-18.744-45.254s6.248-32.758 18.744-45.254c24.994-24.994 65.516-24.994 90.51 0z" />
<glyph unicode="&#xeaea;" glyph-name="back-arrow" data-tags="IcoMoon, icomoon, brand" d="M979.671 492.329h-828.336l197.653 197.666c17.316 17.305 17.316 45.378 0 62.681-17.316 17.316-45.388 17.316-62.678 0l-273.323-273.328c-17.316-17.305-17.316-45.381 0-62.681l273.323-273.341c8.655-8.66 19.999-12.984 31.339-12.984s22.684 4.324 31.339 12.984c17.316 17.305 17.316 45.378 0 62.678l-197.653 197.676h828.336c24.478 0 44.329 19.847 44.329 44.326s-19.847 44.323-44.329 44.323z" />
<glyph unicode="&#xeaeb;" glyph-name="bath" data-tags="IcoMoon, icomoon, brand" d="M972.8 413.867h-17.067v358.4c0 85.333-68.267 153.6-153.6 153.6-75.537 0-129.866-56.013-135.953-138.081-39.652-7.498-68.847-41.654-68.847-83.786 0-10.24 6.827-17.067 17.067-17.067h136.533c10.24 0 17.067 6.827 17.067 17.067 0 41.665-28.547 75.537-67.538 83.536 5.109 54.226 37.672 104.198 101.672 104.198 66.56 0 119.467-52.907 119.467-119.467v-358.4h-513.65c-7.726 39.367-41.756 68.267-83.684 68.267-17.067 20.48-40.96 34.133-68.267 34.133-32.427 0-61.44-18.773-75.093-46.080-13.653 6.827-29.013 11.947-44.373 11.947-41.927 0-75.958-28.9-83.684-68.267h-1.65c-29.013 0-51.2-22.187-51.2-51.2s22.187-51.2 51.2-51.2h20.514l46.046-182.613c13.653-52.907 61.44-90.453 116.053-90.453h13.653l-22.187-44.373c-5.12-8.533-1.707-18.773 6.827-22.187 1.707-1.707 5.12-1.707 6.827-1.707 6.827 0 11.947 3.413 15.36 8.533l29.867 59.733h473.6l29.013-58.027c3.413-6.827 8.533-10.24 15.36-10.24 3.413 0 5.12 0 6.827 3.413 6.827 3.413 10.24 13.653 6.827 22.187l-21.379 42.758c52.838 1.877 98.532 38.775 111.832 88.656l46.478 184.32h20.082c29.013 0 51.2 22.187 51.2 51.2s-22.187 51.2-51.2 51.2zM732.16 721.067h-97.28c6.827 20.48 27.307 34.133 49.493 34.133s40.96-13.653 47.787-34.133zM136.533 448c15.36 0 29.013-6.827 40.96-18.773 3.413-5.12 10.24-6.827 17.067-5.12s10.24 6.827 11.947 13.653c5.12 25.6 25.6 44.373 51.2 44.373 18.773 0 35.84-8.533 44.373-25.6 3.413-6.827 11.947-10.24 18.773-8.533 1.707 0 3.413 0 5.12 0 22.187 0 40.96-13.653 47.787-34.133h-285.013c6.827 20.48 25.6 34.133 47.787 34.133zM875.52 137.387c-10.24-37.547-44.373-64.853-83.627-64.853h-556.373c-39.253 0-73.387 27.307-83.627 64.853l-44.373 174.080h808.96l-40.96-174.080zM972.8 345.6h-921.6c-10.24 0-17.067 6.827-17.067 17.067s6.827 17.067 17.067 17.067h921.6c10.24 0 17.067-6.827 17.067-17.067s-6.827-17.067-17.067-17.067zM614.4 610.133c10.24 0 17.067 6.827 17.067 17.067v8.533c0 10.24-6.827 17.067-17.067 17.067s-17.067-6.827-17.067-17.067v-8.533c0-10.24 6.827-17.067 17.067-17.067zM614.4 531.627c10.24 0 17.067 8.533 17.067 17.067v18.773c0 10.24-6.827 17.067-17.067 17.067s-17.067-6.827-17.067-17.067v-18.773c0-10.24 6.827-17.067 17.067-17.067zM614.4 465.067c10.24 0 17.067 6.827 17.067 17.067v8.533c0 10.24-6.827 17.067-17.067 17.067s-17.067-6.827-17.067-17.067v-8.533c0-10.24 6.827-17.067 17.067-17.067zM682.667 610.133c10.24 0 17.067 6.827 17.067 17.067v8.533c0 10.24-6.827 17.067-17.067 17.067s-17.067-6.827-17.067-17.067v-8.533c0-10.24 6.827-17.067 17.067-17.067zM665.6 548.693c0-10.24 6.827-17.067 17.067-17.067s17.067 8.533 17.067 17.067v18.773c0 10.24-6.827 17.067-17.067 17.067s-17.067-6.827-17.067-17.067v-18.773zM665.6 482.133c0-10.24 6.827-17.067 17.067-17.067s17.067 6.827 17.067 17.067v8.533c0 10.24-6.827 17.067-17.067 17.067s-17.067-6.827-17.067-17.067v-8.533zM750.933 610.133c10.24 0 17.067 6.827 17.067 17.067v8.533c0 10.24-6.827 17.067-17.067 17.067s-17.067-6.827-17.067-17.067v-8.533c0-10.24 6.827-17.067 17.067-17.067zM733.867 548.693c0-10.24 6.827-17.067 17.067-17.067s17.067 8.533 17.067 17.067v18.773c0 10.24-6.827 17.067-17.067 17.067s-17.067-6.827-17.067-17.067v-18.773zM733.867 482.133c0-10.24 6.827-17.067 17.067-17.067s17.067 6.827 17.067 17.067v8.533c0 10.24-6.827 17.067-17.067 17.067s-17.067-6.827-17.067-17.067v-8.533z" />
<glyph unicode="&#xeaec;" glyph-name="bed" data-tags="IcoMoon, icomoon, brand" d="M972.8 465.067h-3.356l-76.857 387.413c-5.12 22.187-25.6 39.253-49.493 39.253h-662.187c-23.893 0-44.373-17.067-49.493-40.96l-76.834-385.707h-3.379c-29.013 0-51.2-22.187-51.2-51.2v-358.4c0-29.013 22.187-51.2 51.2-51.2h116.053c18.773 0 35.84 10.24 44.373 29.013l20.082 39.253h559.787l19.172-39.253c8.533-18.773 27.307-29.013 46.080-29.013h116.053c29.013 0 51.2 22.187 51.2 51.2v358.4c0 29.013-22.187 51.2-51.2 51.2zM163.84 843.947c1.707 8.533 8.533 13.653 17.067 13.653h662.187c8.533 0 15.36-6.827 17.067-13.653l75.093-378.88h-31.744c-10.365 85.936-98.042 153.6-203.776 153.6-83.684 0-156.046-42.394-187.733-102.684-31.687 60.291-104.050 102.684-187.733 102.684-105.734 0-193.411-67.664-203.776-153.6h-31.744l75.093 378.88zM868.693 465.067h-337.92c10.24 66.56 81.92 119.467 168.96 119.467s158.72-52.907 168.96-119.467zM493.227 465.067h-337.92c10.24 66.56 81.92 119.467 168.96 119.467s158.72-52.907 168.96-119.467zM182.613 48.64c-3.413-6.827-8.533-10.24-15.36-10.24h-116.053c-10.24 0-17.067 6.827-17.067 17.067v17.067h160.427l-11.947-23.893zM989.867 55.467c0-10.24-6.827-17.067-17.067-17.067h-116.053c-6.827 0-11.947 5.12-15.36 10.24l-11.947 23.893h160.427v-17.067zM989.867 106.667h-955.733v85.333h955.733v-85.333zM34.133 226.133v51.2h51.2c10.24 0 17.067 6.827 17.067 17.067s-6.827 17.067-17.067 17.067h-51.2v34.133h51.2c10.24 0 17.067 6.827 17.067 17.067s-6.827 17.067-17.067 17.067h-51.2v34.133c0 10.24 6.827 17.067 17.067 17.067h921.6c10.24 0 17.067-6.827 17.067-17.067v-34.133h-68.267c-10.24 0-17.067-6.827-17.067-17.067s6.827-17.067 17.067-17.067h68.267v-34.133h-68.267c-10.24 0-17.067-6.827-17.067-17.067s6.827-17.067 17.067-17.067h68.267v-51.2h-955.733z" />
<glyph unicode="&#xeaed;" glyph-name="add" data-tags="IcoMoon, icomoon, brand" d="M968.431 519.441h-384.99v384.99c0 17.545-23.814 55.569-71.441 55.569s-71.441-38.025-71.441-55.569v-384.99h-384.99c-17.545 0-55.569-23.814-55.569-71.441s38.025-71.441 55.569-71.441h384.99v-384.99c0-17.533 23.814-55.569 71.441-55.569s71.441 38.036 71.441 55.569v384.99h384.99c17.533 0 55.569 23.814 55.569 71.441s-38.036 71.441-55.569 71.441z" />
<glyph unicode="&#xeaee;" glyph-name="camera" data-tags="IcoMoon, icomoon, brand" d="M810.667 704h-67.669l-42.667 42.667c-24.704 24.704-68.053 42.667-102.997 42.667h-170.667c-34.944 0-78.293-17.963-102.997-42.667l-42.667-42.667h-67.669c-70.571 0-128-57.429-128-128v-341.333c0-70.571 57.429-128 128-128h597.333c70.571 0 128 57.429 128 128v341.333c0 70.571-57.429 128-128 128zM512 277.333c-82.475 0-149.333 66.901-149.333 149.333 0 82.517 66.859 149.333 149.333 149.333s149.333-66.816 149.333-149.333c0-82.432-66.859-149.333-149.333-149.333zM768 477.909c-30.677 0-55.467 24.747-55.467 55.424s24.789 55.509 55.467 55.509 55.467-24.832 55.467-55.509-24.789-55.424-55.467-55.424z" />
<glyph unicode="&#xeaef;" glyph-name="car" data-tags="IcoMoon, icomoon, brand" d="M128 512h39.784l79.592 128c32.968 70.688 117 128 187.688 128h217.872c70.688 0 154.72-57.312 187.688-128l81.216-130.624c58.288-11.936 102.16-63.56 102.16-125.376 0-70.688-57.312-128-128-128 0-70.688-57.28-128-128-128s-128 57.312-128 128h-256c0-70.688-57.28-128-128-128s-128 57.312-128 128c-70.688 0-128 57.312-128 128s57.312 128 128 128zM521.616 735.408h-89.288c-52.984 0-124.728-50.336-150.512-105.68l-72.208-117.144h312l0.008 222.824zM806.176 629.728c-25.784 55.344-97.52 105.68-150.512 105.68h-89.28v-222.824h312l-72.208 117.144zM768 164c50.712 0 92 41.24 92 92s-41.288 92-92 92-92-41.24-92-92 41.288-92 92-92zM256 164c50.712 0 92 41.24 92 92s-41.288 92-92 92-92-41.24-92-92 41.288-92 92-92zM116 294l16-2c26 70 76.224 92 128.568 92 68.768 0 107.432-48 120.768-90.664h257.336c24.528 42.208 62.512 87.584 124.76 90.664 53.904 2.664 105.904-36 127.24-92h20c39.056 0 86.664 30.664 81.336 101.336-2.944 38.984-47.8 85.52-86.856 85.52h-786.296c-39.056 0-81.904-46.744-86.856-85.52-8-62.672 44.944-99.336 84-99.336z" />
<glyph unicode="&#xeaf0;" glyph-name="down-arrow" data-tags="IcoMoon, icomoon, brand" d="M1013.768 685.029l-51.299 51.295c-6.836 6.85-14.71 10.264-23.612 10.264-8.88 0-16.751-3.414-23.587-10.264l-403.265-403.244-403.247 403.233c-6.839 6.85-14.71 10.264-23.601 10.264-8.895 0-16.765-3.414-23.601-10.264l-51.292-51.299c-6.85-6.836-10.264-14.706-10.264-23.601 0-8.888 3.425-16.758 10.264-23.594l478.14-478.151c6.836-6.839 14.71-10.257 23.601-10.257s16.751 3.418 23.583 10.257l478.18 478.151c6.836 6.839 10.232 14.71 10.232 23.594 0 8.895-3.396 16.765-10.232 23.615z" />
<glyph unicode="&#xeaf1;" glyph-name="edit" data-tags="IcoMoon, icomoon, brand" d="M832 928c-46.933 0-91.733-17.067-123.733-49.067l-597.333-597.333c-6.4-4.267-10.667-8.533-12.8-14.933l-83.2-294.4-2.133-6.4c0-2.133 0-4.267 0-8.533s0-6.4 0-8.533v-2.133l2.133-4.267c0-2.133 2.133-4.267 4.267-6.4 0-2.133 2.133-2.133 2.133-4.267s2.133-2.133 4.267-2.133c2.133-2.133 4.267-2.133 6.4-4.267l4.267-2.133c2.133 0 4.267-2.133 8.533-2.133v0c4.267 0 6.4 0 8.533 2.133l298.667 83.2c6.4 2.133 10.667 6.4 14.933 12.8l595.2 599.467c2.133 2.133 4.267 4.267 4.267 6.4 29.867 34.133 46.933 76.8 46.933 119.467 0 100.267-81.067 183.467-181.333 183.467zM115.2 10.667l-23.467-6.4 6.4 23.467 17.067-17.067zM861.867 608l-512-512-40.533 83.2 490.667 490.667 61.867-61.867zM296.533 61.867l-113.067-32-66.133 66.133 32 113.067 100.267-49.067c6.4-12.8 34.133-72.533 46.933-98.133zM181.333 264.533l512 512 61.867-61.867-490.667-490.667-83.2 40.533zM949.333 744.533c0-34.133-12.8-64-38.4-87.467l-4.267-4.267-168.533 168.533 4.267 4.267c23.467 25.6 53.333 38.4 87.467 38.4 66.133 0 119.467-53.333 119.467-119.467z" />
<glyph unicode="&#xeaf2;" glyph-name="edit-a" data-tags="IcoMoon, icomoon, brand" d="M0 152.178v-216.178h216.178l625.778 631.467-216.178 216.178-625.778-631.467zM1006.933 732.444c22.756 22.756 22.756 56.889 0 79.644l-130.844 130.847c-22.756 22.756-56.889 22.756-79.644 0l-102.4-102.4 216.178-216.178 96.711 108.087z" />
<glyph unicode="&#xeaf3;" glyph-name="save" data-tags="IcoMoon, icomoon, brand" d="M810.098 941.796h-800.996v-1005.796h1004.658v799.858l-203.662 205.938zM246.898 896.284h339.058v-274.204h-339.058v274.204zM631.467 896.284h146.773v-274.204h-146.773v274.204zM969.387-18.489h-914.773v914.773h146.773v-319.716h621.227v287.858l146.773-146.773v-736.142zM512 429.796c-83.058 0-151.324-67.129-151.324-151.324s65.991-151.324 151.324-151.324 151.324 67.129 151.324 151.324-68.267 151.324-151.324 151.324zM512 173.796c-58.027 0-105.813 46.649-105.813 105.813s46.649 105.813 105.813 105.813 105.813-46.649 105.813-105.813-48.924-105.813-105.813-105.813z" />
<glyph unicode="&#xeaf4;" d="M808.96 950.898h-799.858v-1005.796h1005.796v799.858l-205.938 205.938zM246.898 905.387h337.92v-274.204h-337.92v274.204zM630.329 905.387h146.773v-274.204h-146.773v274.204zM969.387-9.387h-914.773v914.773h146.773v-319.716h621.227v287.858l146.773-146.773v-736.142z" />
<glyph unicode="&#xeaf5;" glyph-name="camera2" data-tags="IcoMoon, icomoon, brand" d="M972.8 413.867h-17.067v358.4c0 85.333-68.267 153.6-153.6 153.6-75.537 0-129.866-56.013-135.953-138.081-39.652-7.498-68.847-41.654-68.847-83.786 0-10.24 6.827-17.067 17.067-17.067h136.533c10.24 0 17.067 6.827 17.067 17.067 0 41.665-28.547 75.537-67.538 83.536 5.109 54.226 37.672 104.198 101.672 104.198 66.56 0 119.467-52.907 119.467-119.467v-358.4h-513.65c-7.726 39.367-41.756 68.267-83.684 68.267-17.067 20.48-40.96 34.133-68.267 34.133-32.427 0-61.44-18.773-75.093-46.080-13.653 6.827-29.013 11.947-44.373 11.947-41.927 0-75.958-28.9-83.684-68.267h-1.65c-29.013 0-51.2-22.187-51.2-51.2s22.187-51.2 51.2-51.2h20.514l46.046-182.613c13.653-52.907 61.44-90.453 116.053-90.453h13.653l-22.187-44.373c-5.12-8.533-1.707-18.773 6.827-22.187 1.707-1.707 5.12-1.707 6.827-1.707 6.827 0 11.947 3.413 15.36 8.533l29.867 59.733h473.6l29.013-58.027c3.413-6.827 8.533-10.24 15.36-10.24 3.413 0 5.12 0 6.827 3.413 6.827 3.413 10.24 13.653 6.827 22.187l-21.379 42.758c52.838 1.877 98.532 38.775 111.832 88.656l46.478 184.32h20.082c29.013 0 51.2 22.187 51.2 51.2s-22.187 51.2-51.2 51.2zM732.16 721.067h-97.28c6.827 20.48 27.307 34.133 49.493 34.133s40.96-13.653 47.787-34.133zM136.533 448c15.36 0 29.013-6.827 40.96-18.773 3.413-5.12 10.24-6.827 17.067-5.12s10.24 6.827 11.947 13.653c5.12 25.6 25.6 44.373 51.2 44.373 18.773 0 35.84-8.533 44.373-25.6 3.413-6.827 11.947-10.24 18.773-8.533 1.707 0 3.413 0 5.12 0 22.187 0 40.96-13.653 47.787-34.133h-285.013c6.827 20.48 25.6 34.133 47.787 34.133zM875.52 137.387c-10.24-37.547-44.373-64.853-83.627-64.853h-556.373c-39.253 0-73.387 27.307-83.627 64.853l-44.373 174.080h808.96l-40.96-174.080zM972.8 345.6h-921.6c-10.24 0-17.067 6.827-17.067 17.067s6.827 17.067 17.067 17.067h921.6c10.24 0 17.067-6.827 17.067-17.067s-6.827-17.067-17.067-17.067zM614.4 610.133c10.24 0 17.067 6.827 17.067 17.067v8.533c0 10.24-6.827 17.067-17.067 17.067s-17.067-6.827-17.067-17.067v-8.533c0-10.24 6.827-17.067 17.067-17.067zM614.4 531.627c10.24 0 17.067 8.533 17.067 17.067v18.773c0 10.24-6.827 17.067-17.067 17.067s-17.067-6.827-17.067-17.067v-18.773c0-10.24 6.827-17.067 17.067-17.067zM614.4 465.067c10.24 0 17.067 6.827 17.067 17.067v8.533c0 10.24-6.827 17.067-17.067 17.067s-17.067-6.827-17.067-17.067v-8.533c0-10.24 6.827-17.067 17.067-17.067zM682.667 610.133c10.24 0 17.067 6.827 17.067 17.067v8.533c0 10.24-6.827 17.067-17.067 17.067s-17.067-6.827-17.067-17.067v-8.533c0-10.24 6.827-17.067 17.067-17.067zM665.6 548.693c0-10.24 6.827-17.067 17.067-17.067s17.067 8.533 17.067 17.067v18.773c0 10.24-6.827 17.067-17.067 17.067s-17.067-6.827-17.067-17.067v-18.773zM665.6 482.133c0-10.24 6.827-17.067 17.067-17.067s17.067 6.827 17.067 17.067v8.533c0 10.24-6.827 17.067-17.067 17.067s-17.067-6.827-17.067-17.067v-8.533zM750.933 610.133c10.24 0 17.067 6.827 17.067 17.067v8.533c0 10.24-6.827 17.067-17.067 17.067s-17.067-6.827-17.067-17.067v-8.533c0-10.24 6.827-17.067 17.067-17.067zM733.867 548.693c0-10.24 6.827-17.067 17.067-17.067s17.067 8.533 17.067 17.067v18.773c0 10.24-6.827 17.067-17.067 17.067s-17.067-6.827-17.067-17.067v-18.773zM733.867 482.133c0-10.24 6.827-17.067 17.067-17.067s17.067 6.827 17.067 17.067v8.533c0 10.24-6.827 17.067-17.067 17.067s-17.067-6.827-17.067-17.067v-8.533z" />
<glyph unicode="&#xeaf6;" d="M512 437.76c-83.058 0-150.187-67.129-150.187-150.187s67.129-150.187 150.187-150.187 150.187 67.129 150.187 150.187-67.129 150.187-150.187 150.187zM512 182.898c-58.027 0-104.676 46.649-104.676 104.676s46.649 104.676 104.676 104.676 104.676-46.649 104.676-104.676c0-58.027-46.649-104.676-104.676-104.676z" />
<glyph unicode="&#xeaf7;" glyph-name="error" data-tags="IcoMoon, icomoon, brand" d="M512 960c-282.317 0-512-229.683-512-512s229.683-512 512-512 512 229.683 512 512-229.683 512-512 512zM719.076 301.249c8.329-8.329 8.329-21.834 0-30.174l-30.151-30.151c-8.329-8.329-21.834-8.329-30.174 0l-146.751 146.739-146.751-146.751c-8.329-8.329-21.834-8.329-30.174 0l-30.162 30.162c-8.329 8.329-8.329 21.834 0 30.174l146.751 146.751-146.751 146.751c-8.329 8.329-8.329 21.834 0 30.174l30.162 30.162c8.329 8.329 21.834 8.329 30.174 0l146.751-146.751 146.751 146.751c8.329 8.329 21.834 8.329 30.174 0l30.162-30.162c8.329-8.329 8.329-21.834 0-30.174l-146.751-146.751 146.739-146.751z" />
<glyph unicode="&#xeaf8;" glyph-name="pdf" data-tags="IcoMoon, icomoon, brand" d="M472.178 641.422v0c5.689 0 5.689 0 0 0 5.689 22.756 11.378 34.133 11.378 51.2v11.378c5.689 28.444 5.689 51.2 0 56.889 0 0 0 0 0 5.689l-5.689 5.689c0 0 0-5.689-5.689-5.689-11.378-34.133-11.378-73.956 0-125.156v0zM301.511 248.889c-11.378-5.689-22.756-11.378-28.444-17.067-39.822-34.133-68.267-73.953-73.956-91.022v0 0 0c34.133 5.689 68.267 39.822 102.4 108.089 5.689 0 5.689 0 0 0 5.689 0 0 0 0 0zM824.889 334.222c-5.689 5.689-28.444 22.756-108.089 22.756-5.689 0-5.689 0-11.378 0v0c0 0 0 0 0-5.689 39.822-17.067 79.644-28.444 108.089-28.444 5.689 0 5.689 0 11.378 0v0h5.689c0 0 0 0 0 5.689v0c0 0-5.689 0-5.689 5.689zM910.222 960h-796.444c-62.578 0-113.778-51.2-113.778-113.778v-796.444c0-62.578 51.2-113.778 113.778-113.778h796.444c62.578 0 113.778 51.2 113.778 113.778v796.444c0 62.578-51.2 113.778-113.778 113.778zM847.644 288.711c-11.38-5.689-28.444-11.378-51.2-11.378-45.511 0-113.778 11.378-170.667 39.822-96.711-11.378-170.667-22.753-227.556-45.509-5.689 0-5.689 0-11.378-5.689-68.267-119.469-125.156-176.358-170.667-176.358-11.378 0-17.067 0-22.756 5.691l-28.444 17.064v5.689c-5.689 11.38-5.689 17.067-5.689 28.444 5.689 28.444 39.822 79.644 108.089 119.469 11.378 5.689 28.444 17.064 51.2 28.444 17.067 28.444 34.133 62.578 56.889 102.398 28.444 56.889 45.511 113.778 62.578 164.978v0c-22.756 68.267-34.133 108.089-11.378 187.733 5.689 22.756 22.756 45.511 45.511 45.511h11.378c11.378 0 22.756-5.689 34.133-11.378 39.824-39.822 22.756-130.844 0-204.8 0-5.689 0-5.689 0-5.689 22.756-62.578 56.889-113.778 91.022-147.911 17.067-11.378 28.444-22.756 51.2-34.133 28.444 0 51.2 5.689 73.956 5.689 68.267 0 113.778-11.378 130.842-39.822 5.691-11.38 5.691-22.756 5.691-34.133-5.689-5.689-11.378-22.756-22.756-34.133zM477.867 510.578c-11.378-39.822-34.133-85.333-56.889-136.533-11.378-22.753-22.756-39.822-34.133-62.578h11.378c73.956 28.444 142.222 45.511 187.733 51.2-11.38 5.689-17.067 11.378-22.756 17.067-28.444 34.133-62.578 79.644-85.333 130.844z" />
<glyph unicode="&#xeaf9;" d="M1127.538 628.907c6.827 0 12.516-2.276 18.204-7.964l157.013-157.013c10.24-10.24 10.24-26.169 0-36.409l-157.013-157.013c-4.551-4.551-11.378-7.964-18.204-7.964s-12.516 2.276-18.204 7.964c-10.24 10.24-10.24 26.169 0 36.409l113.778 113.778h-477.867c-13.653 0-25.031 11.378-25.031 25.031s11.378 25.031 25.031 25.031h476.729l-113.778 113.778c-10.24 10.24-10.24 26.169 0 36.409 5.689 4.551 12.516 7.964 19.342 7.964zM1127.538 674.418c-19.342 0-36.409-6.827-50.062-20.48s-20.48-30.72-20.48-50.062c0-19.342 7.964-36.409 20.48-50.062l36.409-36.409h-368.64c-38.684 0-70.542-31.858-70.542-70.542s31.858-70.542 70.542-70.542h367.502l-36.409-36.409c-13.653-13.653-20.48-30.72-20.48-50.062s7.964-36.409 20.48-50.062c13.653-13.653 30.72-20.48 50.062-20.48s36.409 7.964 50.062 20.48l157.013 157.013c13.653 13.653 20.48 30.72 20.48 50.062s-7.964 36.409-20.48 50.062l-155.876 155.876c-13.653 13.653-31.858 21.618-50.062 21.618v0z" />
<glyph unicode="&#xeafa;" glyph-name="tick" data-tags="IcoMoon, icomoon, brand" d="M512 960c-282.317 0-512-229.683-512-512s229.683-512 512-512 512 229.683 512 512-229.683 512-512 512zM805.99 534.482l-321.661-321.661c-13.676-13.676-31.858-21.208-51.2-21.208s-37.524 7.532-51.2 21.208l-163.931 163.942c-13.676 13.676-21.208 31.858-21.208 51.2s7.532 37.524 21.208 51.2c13.676 13.676 31.858 21.208 51.2 21.208s37.524-7.532 51.2-21.22l112.731-112.731 270.461 270.461c13.676 13.676 31.858 21.208 51.2 21.208s37.524-7.532 51.2-21.208c28.24-28.24 28.24-74.172 0-102.4z" />
<glyph unicode="&#xeafb;" glyph-name="tick-a" data-tags="IcoMoon, icomoon, brand" d="M512 960c-282.317 0-512-229.683-512-512s229.683-512 512-512 512 229.683 512 512-229.683 512-512 512zM805.99 534.482l-321.661-321.661c-13.676-13.676-31.858-21.208-51.2-21.208s-37.524 7.532-51.2 21.208l-163.931 163.942c-13.676 13.676-21.208 31.858-21.208 51.2s7.532 37.524 21.208 51.2 31.858 21.208 51.2 21.208 37.524-7.532 51.2-21.22l112.731-112.731 270.461 270.461c13.676 13.676 31.858 21.208 51.2 21.208s37.524-7.532 51.2-21.208c28.24-28.24 28.24-74.172 0-102.4z" />
<glyph unicode="&#xeafc;" glyph-name="account" data-tags="IcoMoon, icomoon, brand" d="M512 906.667c-253.867 0-458.667-204.8-458.667-458.667s204.8-458.667 458.667-458.667 458.667 204.8 458.667 458.667-204.8 458.667-458.667 458.667zM283.733 138.667c6.4 8.533 10.667 17.067 17.067 25.6 4.267 4.267 34.133 36.267 128 40.533 40.533 0 72.533 32 72.533 74.667v46.933l-25.6 25.6c-12.8 6.4-29.867 17.067-51.2 32h-4.267c-12.8 8.533-25.6 21.333-25.6 23.467v8.533c-8.533 42.667-21.333 115.2-21.333 138.667 0 96 42.667 138.667 138.667 138.667 93.867 0 138.667-44.8 138.667-138.667 0-23.467-12.8-96-21.333-140.8v-6.4c-2.133-4.267-14.933-17.067-27.733-25.6l-4.267-2.133c-14.933-10.667-34.133-23.467-49.067-29.867l-27.733-25.6v-36.267l2.133-8.533c0-44.8 32-76.8 72.533-76.8v0c98.133-4.267 125.867-38.4 125.867-38.4 6.4-8.533 10.667-17.067 17.067-25.6 2.133-2.133 4.267-4.267 4.267-6.4-68.267-51.2-149.333-76.8-234.667-76.8s-164.267 25.6-232.533 76.8l8.533 6.4zM597.333 266.667c-4.267 0-6.4 0-6.4 2.133-2.133 2.133-2.133 6.4-2.133 10.667v19.2c17.067 8.533 34.133 19.2 49.067 32 6.4 4.267 55.467 36.267 55.467 74.667 0 4.267 21.333 110.933 21.333 151.467 0 74.667-25.6 202.667-202.667 202.667-130.133 0-202.667-72.533-202.667-202.667 0-40.533 21.333-147.2 21.333-149.333 0-40.533 53.333-74.667 55.467-74.667 17.067-12.8 34.133-21.333 51.2-29.867v0-19.2c0-12.8-6.4-12.8-10.667-12.8-138.667-6.4-177.067-66.133-179.2-68.267-4.267-8.533-10.667-14.933-14.933-23.467l-2.133-2.133c-72.533 74.667-113.067 170.667-113.067 275.2 0 217.6 177.067 394.667 394.667 394.667s394.667-181.333 394.667-398.933c0-104.533-40.533-200.533-113.067-275.2l-2.133 2.133c-6.4 8.533-10.667 14.933-14.933 23.467 0 2.133-38.4 61.867-179.2 68.267z" />
<glyph unicode="&#xeafd;" glyph-name="account-a" data-tags="IcoMoon, icomoon, brand" d="M512 906.667c-253.867 0-458.667-204.8-458.667-458.667s204.8-458.667 458.667-458.667 458.667 204.8 458.667 458.667-204.8 458.667-458.667 458.667zM283.733 138.667c6.4 8.533 12.8 17.067 17.067 25.6 4.267 4.267 34.133 36.267 128 40.533 40.533 0 72.533 32 72.533 74.667v46.933l-25.6 25.6c-12.8 6.4-29.867 17.067-51.2 32h-4.267c-12.8 8.533-25.6 21.333-25.6 23.467v8.533c-8.533 40.533-21.333 113.067-21.333 138.667 0 96 42.667 138.667 138.667 138.667 93.867 0 138.667-44.8 138.667-138.667 0-23.467-12.8-96-21.333-140.8v-6.4c-2.133-4.267-14.933-17.067-27.733-25.6l-4.267-2.133c-14.933-10.667-34.133-23.467-49.067-29.867l-27.733-25.6v-36.267l2.133-8.533c0-44.8 32-76.8 72.533-76.8v0c98.133-4.267 125.867-38.4 125.867-38.4 4.267-8.533 10.667-17.067 17.067-25.6 2.133-2.133 4.267-4.267 4.267-6.4-68.267-51.2-149.333-76.8-234.667-76.8s-164.267 25.6-232.533 76.8l8.533 6.4zM590.933 268.8c-2.133 2.133-2.133 6.4-2.133 10.667v19.2c17.067 8.533 34.133 19.2 49.067 32 6.4 4.267 55.467 36.267 55.467 74.667 0 4.267 21.333 110.933 21.333 151.467 0 74.667-25.6 202.667-202.667 202.667-130.133 0-202.667-72.533-202.667-202.667 0-40.533 21.333-147.2 21.333-149.333 0-40.533 53.333-74.667 55.467-74.667 17.067-12.8 34.133-21.333 51.2-29.867v0-19.2c0-12.8-6.4-12.8-10.667-12.8-138.667-6.4-177.067-66.133-179.2-68.267-4.267-8.533-10.667-14.933-14.933-23.467l-2.133-2.133c-72.533 74.667-113.067 170.667-113.067 275.2 0 217.6 177.067 394.667 394.667 394.667s394.667-181.333 394.667-398.933c0-104.533-40.533-200.533-113.067-275.2l-2.133 2.133c-4.267 8.533-10.667 14.933-14.933 23.467-2.133 2.133-38.4 64-179.2 68.267-2.133 0-4.267 0-6.4 2.133z" />
<glyph unicode="&#xeafe;" glyph-name="home" data-tags="IcoMoon, icomoon, brand" d="M137.671 823.467v-748.658h748.658v748.658h-748.658zM839.68 121.458h-657.636v656.498h657.636v-656.498zM393.671 259.129v392.533h52.338v-345.884h193.422v-46.649h-245.76z" />
<glyph unicode="&#xeaff;" glyph-name="home-a" data-tags="IcoMoon, icomoon, brand" d="M137.671 822.329v-748.658h748.658v748.658h-748.658zM840.818 120.32h-657.636v656.498h657.636v-656.498z" />
<glyph unicode="&#xeb00;" d="M271.997 335.997h287.994v-64h-287.994v64z" />
<glyph unicode="&#xeb01;" d="M271.997 496.003h480.006v-64h-480.006v64z" />
<glyph unicode="&#xeb02;" d="M832 816.003h-607.994c-44.806 0-79.997-35.203-79.997-79.997v-608.006c0-44.806 35.203-79.997 79.997-79.997h486.4l201.603 233.597v454.394c-0.011 44.806-35.214 80.009-80.009 80.009zM655.997 256v-143.997h-431.991c-9.603 0-15.997 6.394-15.997 15.997v463.997h640v-256h-112.003c-44.806 0-80.009-35.203-80.009-79.997z" />
<glyph unicode="&#xeb03;" d="M271.997 335.997h287.994v-64h-287.994v64z" />
<glyph unicode="&#xeb04;" d="M685.739 734.857c-120.695 0-218.544-97.849-218.544-218.544s97.849-218.544 218.544-218.544 218.544 97.849 218.544 218.544-97.849 218.544-218.544 218.544z" />
<glyph unicode="&#xeb05;" d="M730.226 869.023h-477.855c-40.778 0-73.956-33.178-73.956-73.956v-716.459c0-40.778 33.178-73.956 73.956-73.956h362.826c104.22 0 188.996 84.776 188.996 188.996v601.429c0 40.778-33.178 73.944-73.967 73.944zM240.981 94.857v683.952c0 13.039 10.615 23.632 23.643 23.632h453.348c13.016 0 23.62-10.593 23.62-23.632v-540.206h-177.209v-167.39h-299.759c-13.028 0.011-23.643 10.615-23.643 23.643zM624.481 69.461v105.813h113.152c-5.336-52.087-60.075-104.243-113.152-105.813z" />
<glyph unicode="&#xeb06;" d="M685.739 680.22c90.522 0 163.908-73.387 163.908-163.908s-73.387-163.908-163.908-163.908-163.908 73.387-163.908 163.908 73.375 163.908 163.908 163.908z" />
<glyph unicode="&#xeb07;" d="M650.832 614.207v-130.913l109.272-64.876 30.731 47.809-85.367 51.211v96.768z" />
<glyph unicode="&#xeb08;" d="M685.739 734.857c-120.695 0-218.544-97.849-218.544-218.544s97.849-218.544 218.544-218.544 218.544 97.849 218.544 218.544-97.849 218.544-218.544 218.544z" />
<glyph unicode="&#xeb09;" d="M685.739 680.22c90.522 0 163.908-73.387 163.908-163.908s-73.387-163.908-163.908-163.908-163.908 73.387-163.908 163.908 73.375 163.908 163.908 163.908z" />
<glyph unicode="&#xeb0a;" d="M650.832 614.207v-130.913l109.272-64.876 30.731 47.809-85.367 51.211v96.768z" />
<glyph unicode="&#xeb0b;" d="M271.997 496.003h480.006v-64h-480.006v64z" />
<glyph unicode="&#xeb0c;" glyph-name="search-1" data-tags="IcoMoon, icomoon, brand" d="M1004.8 44.8l-198.72 198.72c56.192 74.944 89.92 167.616 89.92 268.48 0 247.424-200.576 448-448 448s-448-200.576-448-448 200.576-448 448-448c100.864 0 193.536 33.728 268.416 89.92l198.784-198.72c11.776-11.776 24.32-19.2 44.8-19.2 35.392 0 64 28.608 64 64 0 14.016-3.456 29.056-19.2 44.8zM128 512c0 176.768 143.232 320 320 320s320-143.232 320-320-143.232-320-320-320-320 143.232-320 320z" />
<glyph unicode="&#xeb0d;" glyph-name="search-a" data-tags="IcoMoon, icomoon, brand" d="M1004.8 44.8l-198.72 198.72c56.192 74.944 89.92 167.616 89.92 268.48 0 247.424-200.576 448-448 448s-448-200.576-448-448 200.576-448 448-448c100.864 0 193.536 33.728 268.416 89.92l198.784-198.72c11.776-11.776 24.32-19.2 44.8-19.2 35.392 0 64 28.608 64 64 0 14.016-3.456 29.056-19.2 44.8zM128 512c0 176.768 143.232 320 320 320s320-143.232 320-320-143.232-320-320-320-320 143.232-320 320z" />
<glyph unicode="&#xeb0e;" d="M832 816.003h-607.994c-44.806 0-79.997-35.203-79.997-79.997v-608.006c0-44.806 35.203-79.997 79.997-79.997h486.4l201.603 233.597v454.394c-0.011 44.806-35.214 80.009-80.009 80.009zM655.997 256v-143.997h-431.991c-9.603 0-15.997 6.394-15.997 15.997v463.997h640v-256h-112.003c-44.806 0-80.009-35.203-80.009-79.997z" />
<glyph unicode="&#xeb0f;" d="M847.997 649.603h-639.989v83.194c0 15.997 12.8 31.994 31.994 31.994h579.197c15.997 0 31.994-12.8 31.994-31.994z" />
<glyph unicode="&#xeb10;" d="M710.406 143.997v108.794c0 12.8 9.603 25.6 25.6 25.6h89.6l-115.2-134.394z" />
</font>
</defs>
</svg>
